<svg width="105" height="123" viewBox="0 0 105 123" fill="none" xmlns="http://www.w3.org/2000/svg">
<rect width="2.83784" height="3.34641" rx="1.34409" fill="#121212"/>
<rect x="11.3514" width="2.83784" height="3.34641" rx="1.34409" fill="#121212"/>
<rect x="22.7028" width="2.83784" height="3.34641" rx="1.34409" fill="#121212"/>
<rect x="34.054" width="2.83784" height="3.34641" rx="1.34409" fill="#121212"/>
<rect x="45.4055" width="2.83784" height="3.34641" rx="1.34409" fill="#121212"/>
<rect x="56.7568" width="2.83784" height="3.34641" rx="1.34409" fill="#121212"/>
<rect x="68.1083" width="2.83784" height="3.34641" rx="1.34409" fill="#121212"/>
<rect x="79.4597" width="2.83784" height="3.34641" rx="1.34409" fill="#121212"/>
<rect x="90.8109" width="2.83784" height="3.34641" rx="1.34409" fill="#121212"/>
<rect x="102.162" width="2.83784" height="3.34641" rx="1.34409" fill="#121212"/>
<rect y="13.3857" width="2.83784" height="3.34641" rx="1.34409" fill="#121212"/>
<rect x="11.3514" y="13.3857" width="2.83784" height="3.34641" rx="1.34409" fill="#121212"/>
<rect x="22.7028" y="13.3857" width="2.83784" height="3.34641" rx="1.34409" fill="#121212"/>
<rect x="34.054" y="13.3857" width="2.83784" height="3.34641" rx="1.34409" fill="#121212"/>
<rect x="45.4055" y="13.3857" width="2.83784" height="3.34641" rx="1.34409" fill="#121212"/>
<rect x="56.7568" y="13.3857" width="2.83784" height="3.34641" rx="1.34409" fill="#121212"/>
<rect x="68.1083" y="13.3857" width="2.83784" height="3.34641" rx="1.34409" fill="#121212"/>
<rect x="79.4597" y="13.3857" width="2.83784" height="3.34641" rx="1.34409" fill="#121212"/>
<rect x="90.8109" y="13.3857" width="2.83784" height="3.34641" rx="1.34409" fill="#121212"/>
<rect x="102.162" y="13.3857" width="2.83784" height="3.34641" rx="1.34409" fill="#121212"/>
<rect y="26.7713" width="2.83784" height="3.34641" rx="1.34409" fill="#121212"/>
<rect x="11.3514" y="26.7713" width="2.83784" height="3.34641" rx="1.34409" fill="#121212"/>
<rect x="22.7028" y="26.7713" width="2.83784" height="3.34641" rx="1.34409" fill="#121212"/>
<rect x="34.054" y="26.7713" width="2.83784" height="3.34641" rx="1.34409" fill="#121212"/>
<rect x="45.4055" y="26.7713" width="2.83784" height="3.34641" rx="1.34409" fill="#121212"/>
<rect x="56.7568" y="26.7713" width="2.83784" height="3.34641" rx="1.34409" fill="#121212"/>
<rect x="68.1083" y="26.7713" width="2.83784" height="3.34641" rx="1.34409" fill="#121212"/>
<rect x="79.4597" y="26.7713" width="2.83784" height="3.34641" rx="1.34409" fill="#121212"/>
<rect x="90.8109" y="26.7713" width="2.83784" height="3.34641" rx="1.34409" fill="#121212"/>
<rect x="102.162" y="26.7713" width="2.83784" height="3.34641" rx="1.34409" fill="#121212"/>
<rect y="40.1569" width="2.83784" height="3.34641" rx="1.34409" fill="#121212"/>
<rect x="11.3514" y="40.1569" width="2.83784" height="3.34641" rx="1.34409" fill="#121212"/>
<rect x="22.7028" y="40.1569" width="2.83784" height="3.34641" rx="1.34409" fill="#121212"/>
<rect x="34.054" y="40.1569" width="2.83784" height="3.34641" rx="1.34409" fill="#121212"/>
<rect x="45.4055" y="40.1569" width="2.83784" height="3.34641" rx="1.34409" fill="#121212"/>
<rect x="56.7568" y="40.1569" width="2.83784" height="3.34641" rx="1.34409" fill="#121212"/>
<rect x="68.1083" y="40.1569" width="2.83784" height="3.34641" rx="1.34409" fill="#121212"/>
<rect x="79.4597" y="40.1569" width="2.83784" height="3.34641" rx="1.34409" fill="#121212"/>
<rect x="90.8109" y="40.1569" width="2.83784" height="3.34641" rx="1.34409" fill="#121212"/>
<rect x="102.162" y="40.1569" width="2.83784" height="3.34641" rx="1.34409" fill="#121212"/>
<rect y="53.5425" width="2.83784" height="3.34641" rx="1.34409" fill="#121212"/>
<rect x="11.3514" y="53.5425" width="2.83784" height="3.34641" rx="1.34409" fill="#121212"/>
<rect x="22.7028" y="53.5425" width="2.83784" height="3.34641" rx="1.34409" fill="#121212"/>
<rect x="34.054" y="53.5425" width="2.83784" height="3.34641" rx="1.34409" fill="#121212"/>
<rect x="45.4055" y="53.5425" width="2.83784" height="3.34641" rx="1.34409" fill="#121212"/>
<rect x="56.7568" y="53.5425" width="2.83784" height="3.34641" rx="1.34409" fill="#121212"/>
<rect x="68.1083" y="53.5425" width="2.83784" height="3.34641" rx="1.34409" fill="#121212"/>
<rect x="79.4597" y="53.5425" width="2.83784" height="3.34641" rx="1.34409" fill="#121212"/>
<rect x="90.8109" y="53.5425" width="2.83784" height="3.34641" rx="1.34409" fill="#121212"/>
<rect x="102.162" y="53.5425" width="2.83784" height="3.34641" rx="1.34409" fill="#121212"/>
<rect y="66.9281" width="2.83784" height="3.34641" rx="1.34409" fill="#121212"/>
<rect x="11.3514" y="66.9281" width="2.83784" height="3.34641" rx="1.34409" fill="#121212"/>
<rect x="22.7028" y="66.9281" width="2.83784" height="3.34641" rx="1.34409" fill="#121212"/>
<rect x="34.054" y="66.9281" width="2.83784" height="3.34641" rx="1.34409" fill="#121212"/>
<rect x="45.4055" y="66.9281" width="2.83784" height="3.34641" rx="1.34409" fill="#121212"/>
<rect x="56.7568" y="66.9281" width="2.83784" height="3.34641" rx="1.34409" fill="#121212"/>
<rect x="68.1083" y="66.9281" width="2.83784" height="3.34641" rx="1.34409" fill="#121212"/>
<rect x="79.4597" y="66.9281" width="2.83784" height="3.34641" rx="1.34409" fill="#121212"/>
<rect x="90.8109" y="66.9281" width="2.83784" height="3.34641" rx="1.34409" fill="#121212"/>
<rect x="102.162" y="66.9281" width="2.83784" height="3.34641" rx="1.34409" fill="#121212"/>
<rect y="80.3138" width="2.83784" height="3.34641" rx="1.34409" fill="#121212"/>
<rect y="93.2238" width="2.83784" height="3.34641" rx="1.34409" fill="#121212"/>
<rect y="106.134" width="2.83784" height="3.34641" rx="1.34409" fill="#121212"/>
<rect y="119.044" width="2.83784" height="3.34641" rx="1.34409" fill="#121212"/>
<rect x="11.3514" y="80.3138" width="2.83784" height="3.34641" rx="1.34409" fill="#121212"/>
<rect x="11.3514" y="93.2238" width="2.83784" height="3.34641" rx="1.34409" fill="#121212"/>
<rect x="11.3514" y="106.134" width="2.83784" height="3.34641" rx="1.34409" fill="#121212"/>
<rect x="11.3514" y="119.044" width="2.83784" height="3.34641" rx="1.34409" fill="#121212"/>
<rect x="22.7028" y="80.3138" width="2.83784" height="3.34641" rx="1.34409" fill="#121212"/>
<rect x="22.7028" y="93.2238" width="2.83784" height="3.34641" rx="1.34409" fill="#121212"/>
<rect x="22.7028" y="106.134" width="2.83784" height="3.34641" rx="1.34409" fill="#121212"/>
<rect x="22.7028" y="119.044" width="2.83784" height="3.34641" rx="1.34409" fill="#121212"/>
<rect x="34.054" y="80.3138" width="2.83784" height="3.34641" rx="1.34409" fill="#121212"/>
<rect x="34.054" y="93.2238" width="2.83784" height="3.34641" rx="1.34409" fill="#121212"/>
<rect x="34.054" y="106.134" width="2.83784" height="3.34641" rx="1.34409" fill="#121212"/>
<rect x="34.054" y="119.044" width="2.83784" height="3.34641" rx="1.34409" fill="#121212"/>
<rect x="45.4055" y="80.3138" width="2.83784" height="3.34641" rx="1.34409" fill="#121212"/>
<rect x="45.4055" y="93.2238" width="2.83784" height="3.34641" rx="1.34409" fill="#121212"/>
<rect x="45.4055" y="106.134" width="2.83784" height="3.34641" rx="1.34409" fill="#121212"/>
<rect x="45.4055" y="119.044" width="2.83784" height="3.34641" rx="1.34409" fill="#121212"/>
<rect x="56.7568" y="80.3138" width="2.83784" height="3.34641" rx="1.34409" fill="#121212"/>
<rect x="56.7568" y="93.2238" width="2.83784" height="3.34641" rx="1.34409" fill="#121212"/>
<rect x="56.7568" y="106.134" width="2.83784" height="3.34641" rx="1.34409" fill="#121212"/>
<rect x="56.7568" y="119.044" width="2.83784" height="3.34641" rx="1.34409" fill="#121212"/>
<rect x="68.1083" y="80.3138" width="2.83784" height="3.34641" rx="1.34409" fill="#121212"/>
<rect x="68.1083" y="93.2238" width="2.83784" height="3.34641" rx="1.34409" fill="#121212"/>
<rect x="68.1083" y="106.134" width="2.83784" height="3.34641" rx="1.34409" fill="#121212"/>
<rect x="68.1083" y="119.044" width="2.83784" height="3.34641" rx="1.34409" fill="#121212"/>
<rect x="79.4597" y="80.3138" width="2.83784" height="3.34641" rx="1.34409" fill="#121212"/>
<rect x="79.4597" y="93.2238" width="2.83784" height="3.34641" rx="1.34409" fill="#121212"/>
<rect x="79.4597" y="106.134" width="2.83784" height="3.34641" rx="1.34409" fill="#121212"/>
<rect x="79.4597" y="119.044" width="2.83784" height="3.34641" rx="1.34409" fill="#121212"/>
<rect x="90.8109" y="80.3138" width="2.83784" height="3.34641" rx="1.34409" fill="#121212"/>
<rect x="90.8109" y="93.2238" width="2.83784" height="3.34641" rx="1.34409" fill="#121212"/>
<rect x="90.8109" y="106.134" width="2.83784" height="3.34641" rx="1.34409" fill="#121212"/>
<rect x="90.8109" y="119.044" width="2.83784" height="3.34641" rx="1.34409" fill="#121212"/>
<rect x="102.162" y="80.3138" width="2.83784" height="3.34641" rx="1.34409" fill="#121212"/>
<rect x="102.162" y="93.2238" width="2.83784" height="3.34641" rx="1.34409" fill="#121212"/>
<rect x="102.162" y="106.134" width="2.83784" height="3.34641" rx="1.34409" fill="#121212"/>
<rect x="102.162" y="119.044" width="2.83784" height="3.34641" rx="1.34409" fill="#121212"/>
</svg>
